<svg width="32" height="32" viewBox="0 0 32 32" fill="none" xmlns="http://www.w3.org/2000/svg">
<g clip-path="url(#clip0_1_83)">
<path d="M15.9863 -0.00927734C7.15199 -0.00927734 -0.00933838 7.15206 -0.00933838 15.9864C-0.00933838 24.8204 7.15199 31.9817 15.9863 31.9817C24.8203 31.9817 31.9817 24.8204 31.9817 15.9864C31.9817 7.15206 24.8203 -0.00927734 15.9863 -0.00927734ZM15.986 6.29806C18.655 6.29806 20.8193 8.46206 20.8193 11.1314C20.8193 13.8007 18.6553 15.9651 15.986 15.9651C13.3163 15.9651 11.1523 13.8011 11.1523 11.1314C11.1523 8.46206 13.3163 6.29806 15.986 6.29806ZM16.0317 24.6237H8.93333C8.93333 19.8604 11.525 18.1644 13.2247 16.6424C14.0483 17.0851 14.9877 17.3391 15.986 17.3464C16.9837 17.3391 17.923 17.0851 18.7463 16.6424C20.4467 18.1647 23.0383 19.8604 23.0383 24.6237H16.0317Z" fill="#B17457"/>
<mask id="mask0_1_83" style="mask-type:luminance" maskUnits="userSpaceOnUse" x="30" y="30" width="2" height="2">
<path d="M30.812 30.9813H31.1753V31.2957H30.812V30.9813Z" fill="white"/>
</mask>
<g mask="url(#mask0_1_83)">
<mask id="mask1_1_83" style="mask-type:luminance" maskUnits="userSpaceOnUse" x="30" y="30" width="2" height="2">
<path d="M31.1743 31.0913C31.0143 31.3537 30.8607 31.3023 30.8287 31.2513C30.7967 31.1937 30.8223 31.04 30.8737 31.0017C30.9247 30.9567 31.1297 31.0143 31.1297 31.0143" fill="white"/>
</mask>
<g mask="url(#mask1_1_83)">
<path d="M30.5727 30.7457H31.4373V31.5841H30.5727V30.7457Z" fill="#E7191F"/>
</g>
</g>
</g>
<defs>
<clipPath id="clip0_1_83">
<rect width="32" height="32" fill="white"/>
</clipPath>
</defs>
</svg>
